<svg width="100" height="83" viewBox="0 0 100 83" version="1.1" xmlns="http://www.w3.org/2000/svg" xmlns:xlink="http://www.w3.org/1999/xlink">
	<path fill="white" d="M51.26,50.905 L51.42,50.2525 L50.9775,50.0125 C48.45,48.555 46.8725,45.815 46.8575,42.845 L46.87,42.3875 C47.1025,38.1725 50.6075,34.67 54.8525,34.5225 L54.94,34.5225 L55.04,34.5325 L55.1425,34.54 L55.245,34.5325 L55.3475,34.5225 L55.435,34.5225 L55.885,34.5475 C60.075,34.935 63.435,38.58 63.4275,42.8425 L63.41,43.38 C63.2025,46.3325 61.4675,48.9575 58.8675,50.2525 L59.025,50.905 L71.4125,50.905 L71.4275,51.105 C71.465,51.31 71.565,51.5175 71.7325,51.7525 L72.715,53.14 C73.36,54.07 73.99,55.015 74.6025,55.965 L74.9875,56.575 C76.8875,59.6225 78.3875,62.8225 78.28,66.6275 L78.23,67.2775 C78.19,67.93 78.155,68.5875 78.03,69.225 L77.8875,69.9 C77.29,72.5975 76.2475,75.105 74.34,77.1175 L73.775,77.6925 C71.095,80.2825 67.8425,81.775 64.175,82.345 L63.45,82.4375 C61.3025,82.655 59.135,82.3025 57.16,81.41 L56.19,80.9625 C53.9625,79.8725 51.87,78.5175 49.9525,76.9275 L47.5775,74.9825 C44.415,72.395 41.2575,69.7975 38.2275,67.0475 L35.8525,64.8375 C32.71,61.8625 29.67,58.765 26.5525,55.7575 L25.1175,54.41 C24.15,53.525 23.1675,52.6475 22.22,51.745 L22.0275,51.55 C21.8025,51.305 21.7025,51.1075 21.715,50.905 L50.9425,50.905 L47.61,64.9075 L47.5625,65.18 C47.5525,65.2625 47.5475,65.345 47.5475,65.43 C47.5475,66.6125 48.4975,67.5875 49.6525,67.5925 L59.965,67.5925 L60.235,67.575 C61.2825,67.4325 62.0725,66.5075 62.0725,65.425 C62.0725,65.25 62.05,65.075 62.01,64.905 L58.6775,50.9025 L51.26,50.9025 L51.26,50.905 L51.26,50.905 Z M50,0 L50.86,0.0075 C78.075,0.475 100,23.0825 100,50.905 L71.4375,50.905 L71.4625,50.705 C71.525,50.475 71.6325,50.2625 71.78,50.075 L72.8125,48.6375 C73.4925,47.6725 74.155,46.6925 74.7925,45.7 L75.21,45.04 C76.7225,42.61 77.96,40.0525 78.225,37.1175 L78.2775,36.29 C78.38,33.83 77.9225,31.38 76.94,29.13 L76.6475,28.4875 C74.5325,24.0725 70.9475,21.455 66.32,20.2125 L65.6075,20.0375 C61.355,19.1125 57.3775,20.1775 53.7375,22.605 L51.9775,23.83 C50.2325,25.085 48.535,26.415 46.7975,27.6825 L45.1825,28.905 C40.3975,32.6475 36.1575,37.02 31.8,41.2525 L29.925,43.0225 C28.0325,44.775 26.0875,46.475 24.1825,48.2175 L23.185,49.15 L22.2075,50.1025 L22.0275,50.2875 C21.8125,50.5275 21.7025,50.7175 21.6875,50.9025 L4.4408921e-15,50.9025 C4.4408921e-15,22.7925 22.3875,0 49.9975,0 L50,0 Z"></path>
</svg>