<svg width="256" height="256" viewBox="0 0 256 256" fill="none" xmlns="http://www.w3.org/2000/svg">
<path d="M130.556 148.33L130.879 147.044L129.983 146.569C125 143.734 121.64 138.475 121.63 132.441L121.655 131.546C122.126 123.234 129.232 116.332 137.832 116.04H138.01L138.215 116.061L138.423 116.076L138.631 116.061L138.838 116.04H139.014L139.929 116.096C148.418 116.854 155.228 124.036 155.215 132.441L155.179 133.498C154.784 139.435 151.138 144.5 145.969 147.044L146.292 148.33H171.397L171.428 148.726C171.501 149.125 171.704 149.539 172.047 150.001L174.034 152.734C175.341 154.569 176.615 156.43 177.86 158.308L178.641 159.505C182.495 165.511 185.537 171.817 185.314 179.318L185.216 180.603C185.13 181.89 185.058 183.181 184.805 184.434L184.521 185.77C183.31 191.084 181.195 196.024 177.331 199.999L176.184 201.127C170.752 206.233 164.158 209.175 156.726 210.299L155.263 210.481C150.889 210.905 146.676 210.237 142.512 208.456L140.542 207.573C135.998 205.434 131.813 202.744 127.902 199.617L123.093 195.789C116.679 190.687 110.281 185.567 104.144 180.148L99.3264 175.796C92.9605 169.925 86.7966 163.822 80.4808 157.894L77.5694 155.24C75.6091 153.491 73.624 151.769 71.6992 149.985L71.309 149.603C70.8521 149.119 70.6476 148.732 70.6769 148.33H129.91L123.157 175.925L123.061 176.463C122.774 178.957 124.714 181.222 127.296 181.222H148.198L148.741 181.188C151.226 180.875 152.953 178.442 152.34 175.925L145.587 148.33H130.556ZM127.995 48L129.74 48.0146C184.901 48.9369 229.333 93.4944 229.333 148.33H171.449L171.502 147.936C171.596 147.541 171.812 147.138 172.143 146.696L174.234 143.86C175.611 141.957 176.952 140.028 178.245 138.072L179.093 136.772C182.156 131.983 184.667 126.94 185.2 121.155L185.31 119.526C185.515 114.658 184.611 109.956 182.6 105.417L182.007 104.149C177.717 95.4444 170.456 90.2853 161.073 87.8374L159.631 87.4958C151.011 85.6664 142.953 87.7698 135.577 92.5553L132.007 94.9696C128.473 97.4424 125.031 100.061 121.512 102.562L118.235 104.973C108.536 112.35 99.9505 120.965 91.115 129.306L87.316 132.799C83.4766 136.25 79.5362 139.599 75.6765 143.033L73.6573 144.871L71.6713 146.748L71.3077 147.118C70.8748 147.586 70.6484 147.962 70.6191 148.33H26.6665C26.6665 92.9172 72.0369 48 127.995 48V48Z" fill="#0A9DBD"/>
</svg>
